<svg xmlns="http://www.w3.org/2000/svg" xmlns:xlink="http://www.w3.org/1999/xlink" id="Layer_1" x="0px" y="0px" viewBox="0 0 133.28 117.43" style="enable-background:new 0 0 133.28 117.43;" xml:space="preserve">
<style type="text/css">
	.st0{fill:none;stroke:#344154;stroke-width:3;stroke-linecap:round;stroke-linejoin:round;stroke-miterlimit:10;}
	.st1{fill:#17C2C9;}
	.st2{fill:#E31E25;}
</style>
<g>
	<path id="XMLID_176_" class="st0" d="M98.93,35.49c0-5.67,4.6-10.27,10.27-10.27c5.67,0,10.27,4.6,10.27,10.27   c0,5.67-4.6,10.27-10.27,10.27C103.53,45.76,98.93,41.16,98.93,35.49z"></path>
	<path id="XMLID_175_" class="st0" d="M20.64,35.49c0-5.67,4.6-10.27,10.27-10.27c5.67,0,10.27,4.6,10.27,10.27   c0,5.67-4.6,10.27-10.27,10.27C25.24,45.76,20.64,41.16,20.64,35.49z"></path>
	<path id="XMLID_174_" class="st0" d="M119.19,37.85h2.86h6.73c0.9,0,1.62-0.73,1.61-1.63l-0.08-7.15c0-1.1-0.46-1.83-1.11-2.25   l-2.82-1.85l-0.02-3.79c0.11-0.98-0.42-1.92-1.32-2.33c-3.04-1.38-10.43-3.97-24.01-4.75c-4.95-0.29-7.73-1.53-12.16-3.74   L77.81,4.82C73.44,2.64,68.62,1.5,63.73,1.5H49.56c-9.16,0-18.24,2.21-26.17,6.81c-4.33,2.51-10,4.68-16.35,4.33   c-0.8-0.04-1.46,0.6-1.46,1.4v4.98c0,0-2.69,3.45-2.69,8.39c0,0,0.04,10.44,8.15,10.44h6.87h3.02"></path>
	<line id="XMLID_173_" class="st0" x1="41.63" y1="37.85" x2="98.32" y2="37.85"></line>
	<path id="XMLID_171_" class="st0" d="M57.17,1.5v15.67h22.06c4.71,0,9.23-1.87,12.57-5.21l0.09-0.09"></path>
	<path id="XMLID_170_" class="st0" d="M57.17,17.17h-7.75c-8.17,0-15.57-4.79-18.92-12.24l0,0"></path>
	<line id="XMLID_169_" class="st0" x1="5.58" y1="19.02" x2="15.65" y2="19.02"></line>
	<g>
		<line class="st0" x1="66.74" y1="66.55" x2="52.18" y2="81.11"></line>
		<polyline class="st0" points="66.74,50.47 66.74,66.55 81.1,80.91   "></polyline>
	</g>
	<path class="st0" d="M16.04,87.42L3.27,95.77c0,0-1.77,18.95-1.77,20.16"></path>
	<path class="st0" d="M16.04,87.42L16.04,87.42l0.22,9.44c0.06,2.71,1.29,5.27,3.38,7.01l5.16,4.29l5.16-4.3   c2.09-1.74,3.32-4.29,3.38-7.01l0.21-9.44l0,0C28.34,91.25,21.24,91.25,16.04,87.42z"></path>
	<path class="st1" d="M23.47,99.26c-0.75-0.63-1.2-1.55-1.22-2.53l-0.01-0.58c0.84,0.1,1.69,0.16,2.55,0.16   c0.86,0,1.71-0.05,2.55-0.16l-0.01,0.58c-0.02,0.98-0.47,1.9-1.22,2.53l-1.32,1.1L23.47,99.26z"></path>
	<path class="st1" d="M107.17,99.26c-0.75-0.63-1.2-1.55-1.22-2.53l-0.01-0.58c0.84,0.1,1.69,0.16,2.55,0.16   c0.86,0,1.71-0.05,2.55-0.16l-0.01,0.58c-0.02,0.98-0.47,1.9-1.22,2.53l-1.32,1.1L107.17,99.26z"></path>
	<path class="st0" d="M48.08,115.93c0-1.2-1.77-20.16-1.77-20.16l-12.77-8.35"></path>
	<path class="st0" d="M34.08,72.35c0-6.3-4.16-11.4-9.29-11.4c-5.13,0-9.29,5.11-9.29,11.4c0,6.3,4.16,11.4,9.29,11.4   C29.92,83.76,34.08,78.65,34.08,72.35z"></path>
	<line class="st0" x1="24.79" y1="108.16" x2="24.79" y2="115.93"></line>
	<g>
		<path class="st0" d="M99.73,87.42l-12.77,8.35c0,0-1.77,18.95-1.77,20.16"></path>
		<path class="st0" d="M99.73,87.42L99.73,87.42l0.22,9.44c0.06,2.71,1.29,5.27,3.38,7.01l5.16,4.29l5.16-4.3    c2.09-1.74,3.32-4.29,3.38-7.01l0.22-9.44l0,0C112.04,91.25,104.94,91.25,99.73,87.42z"></path>
		<path class="st0" d="M131.78,115.93c0-1.2-1.77-20.16-1.77-20.16l-12.77-8.35"></path>
		<path class="st0" d="M117.78,72.35c0-6.3-4.16-11.4-9.29-11.4c-5.13,0-9.29,5.11-9.29,11.4c0,6.3,4.16,11.4,9.29,11.4    C113.62,83.76,117.78,78.65,117.78,72.35z"></path>
		<line class="st0" x1="108.49" y1="108.16" x2="108.49" y2="115.93"></line>
	</g>
	<circle class="st2" cx="30.91" cy="35.49" r="3.33"></circle>
	<circle class="st2" cx="109.2" cy="35.49" r="3.33"></circle>
</g>
</svg>