<svg xmlns="http://www.w3.org/2000/svg" xmlns:xlink="http://www.w3.org/1999/xlink" id="Layer_1" x="0px" y="0px" viewBox="0 0 125.37 115.65" style="enable-background:new 0 0 125.37 115.65;" xml:space="preserve">
<style type="text/css">
	.st0{fill:#E31E25;}
	.st1{fill:none;stroke:#344154;stroke-width:3;stroke-linecap:round;stroke-linejoin:round;stroke-miterlimit:10;}
	.st2{fill:#17C2C9;}
</style>
<g>
	<path id="XMLID_20_" class="st0" d="M28.94,91.9H44.3v-2.7c0-2.72-1.99-5.02-4.68-5.41l-10.67-1.47V91.9z"></path>
	<path id="XMLID_187_" class="st1" d="M92.54,104.12v3.59c0,3.55,2.88,6.43,6.43,6.43h3.6c3.55,0,6.43-2.88,6.43-6.43V80.51   c0-1.61,0.86-3.09,2.26-3.89l1.98-1.13c0.62-0.23,1.03-0.81,1.03-1.47v-5.26c0-0.86-0.7-1.56-1.56-1.56h-5.1   c-2.12,0-4.08-1.16-5.1-3.03l-7.43-13.63c-1.45-2.67-4.25-4.33-7.29-4.33H65.42H43.06c-3.04,0-5.83,1.66-7.29,4.33l-7.43,13.63   c-1.02,1.87-2.97,3.03-5.1,3.03h-5.1c-0.86,0-1.56,0.7-1.56,1.56v5.26c0,0.66,0.41,1.24,1.03,1.47l1.98,1.13   c1.4,0.8,2.26,2.28,2.26,3.89v27.21c0,3.55,2.88,6.43,6.43,6.43h3.6c3.55,0,6.43-2.88,6.43-6.43v-3.6H92.54z"></path>
	<path id="XMLID_24_" class="st0" d="M101.91,91.9H86.55v-2.7c0-2.72,1.99-5.02,4.68-5.41l10.67-1.47V91.9z"></path>
	<line id="XMLID_184_" class="st1" x1="38.3" y1="104.12" x2="31.58" y2="104.12"></line>
	<line id="XMLID_183_" class="st1" x1="92.54" y1="104.12" x2="99.27" y2="104.12"></line>
	<line class="st1" x1="53.31" y1="91.9" x2="77.54" y2="91.9"></line>
	<path id="XMLID_195_" class="st1" d="M110.65,36.76v2.19c0,2.16,1.75,3.92,3.92,3.92h2.19c2.16,0,3.92-1.75,3.92-3.92V22.38   c0-0.98,0.53-1.88,1.38-2.37l1.2-0.69c0.38-0.14,0.63-0.49,0.63-0.89v-3.2c0-0.53-0.43-0.95-0.95-0.95h-3.1   c-1.29,0-2.48-0.71-3.1-1.84l-4.53-8.3c-0.89-1.62-2.59-2.63-4.44-2.63H94.13H80.52c-1.85,0-3.55,1.01-4.44,2.63l-1.41,2.59"></path>
	<line id="XMLID_189_" class="st1" x1="110.65" y1="36.76" x2="114.74" y2="36.76"></line>
	<path id="XMLID_2_" class="st1" d="M27.49,42.86H16.37v2.46c0,2.43-1.97,4.4-4.4,4.4H9.51c-2.43,0-4.4-1.97-4.4-4.4V26.69   c0-1.1-0.59-2.12-1.55-2.66L2.2,23.26c-0.42-0.15-0.7-0.56-0.7-1.01v-3.6c0-0.59,0.48-1.07,1.07-1.07h3.49   c1.45,0,2.79-0.79,3.49-2.07l5.09-9.33c1-1.83,2.91-2.96,4.99-2.96h15.31h15.31c2.08,0,3.99,1.14,4.99,2.96l5.09,9.33   c0.7,1.28,2.04,2.07,3.49,2.07h3.49c0.59,0,1.07,0.48,1.07,1.07v3.6c0,0.45-0.28,0.85-0.7,1.01l-1.35,0.77   c-0.96,0.54-1.55,1.56-1.55,2.66v10.06"></path>
	<line id="XMLID_192_" class="st1" x1="16.37" y1="42.86" x2="11.77" y2="42.86"></line>
	<line class="st1" x1="109.82" y1="36.76" x2="81.97" y2="36.76"></line>
	<path class="st2" d="M89.81,53.42c-0.4-0.74-1.18-1.2-2.02-1.2H43.06c-0.84,0-1.62,0.46-2.02,1.2l-7.2,13.19H97L89.81,53.42z"></path>
	<path class="st2" d="M50.06,9.22H34.94H19.82l-5,9.17c-0.24,0.43-0.51,0.84-0.8,1.23h41.84c-0.29-0.39-0.56-0.79-0.8-1.23   L50.06,9.22z"></path>
	<path class="st0" d="M111.45,15.31l-4.26-7.81H94.13H80.58v10.61h33.22C112.86,17.34,112.05,16.41,111.45,15.31z"></path>
</g>
</svg>