<svg xmlns="http://www.w3.org/2000/svg" xmlns:xlink="http://www.w3.org/1999/xlink" id="Layer_1" x="0px" y="0px" viewBox="0 0 99.1 124.83" style="enable-background:new 0 0 99.1 124.83;" xml:space="preserve">
<style type="text/css">
	.st0{fill:none;stroke:#344154;stroke-width:3;stroke-linecap:round;stroke-linejoin:round;stroke-miterlimit:10;}
	.st1{fill:#E31E25;}
</style>
<g>
	<line id="XMLID_6840_" class="st0" x1="20.94" y1="83.3" x2="7.48" y2="83.3"></line>
	<line id="XMLID_6839_" class="st0" x1="55.13" y1="11.82" x2="7.48" y2="11.82"></line>
	<path id="XMLID_6837_" class="st0" d="M20.94,99.65H8.96c-4.12,0-7.46-3.34-7.46-7.46V8.96c0-4.12,3.34-7.46,7.46-7.46h44.69   c4.12,0,7.46,3.34,7.46,7.46v61.47"></path>
	<line id="XMLID_6836_" class="st0" x1="25.4" y1="6.72" x2="37.21" y2="6.72"></line>
	<line id="XMLID_6823_" class="st0" x1="28.29" y1="100.55" x2="35.55" y2="100.55"></line>
	<line id="XMLID_6822_" class="st0" x1="42.03" y1="100.55" x2="49.3" y2="100.55"></line>
	<line id="XMLID_6821_" class="st0" x1="55.78" y1="100.55" x2="63.04" y2="100.55"></line>
	<line id="XMLID_6820_" class="st0" x1="69.53" y1="100.55" x2="76.79" y2="100.55"></line>
	<path id="XMLID_6819_" class="st0" d="M78,109.87H27.07c-3.39,0-6.13-2.75-6.13-6.13V76.56c0-3.39,2.75-6.13,6.13-6.13H78   c3.39,0,6.13,2.75,6.13,6.13v27.17C84.14,107.12,81.39,109.87,78,109.87z"></path>
	<path id="XMLID_6818_" class="st0" d="M84.14,83.89h9.22c2.34,0,4.24,1.9,4.24,4.24v30.95c0,2.34-1.9,4.24-4.24,4.24H38.65   c-2.34,0-4.24-1.9-4.24-4.24v-9.22"></path>
	<path class="st0" d="M31.92,42.18c-4.1,0-7.42-3.32-7.42-7.42c0-4.1,3.32-7.42,7.42-7.42c4.1,0,7.42,3.32,7.42,7.42"></path>
	<path class="st0" d="M31.92,42.18c4.1,0,7.42,3.32,7.42,7.42s-3.32,7.42-7.42,7.42c-4.1,0-7.42-3.32-7.42-7.42"></path>
	<line class="st0" x1="31.92" y1="23.2" x2="31.92" y2="62.09"></line>
	<path class="st1" d="M78.14,76.56c0-0.07-0.06-0.13-0.13-0.13H27.07c-0.07,0-0.13,0.06-0.13,0.13v7.33h51.2V76.56z"></path>
</g>
</svg>