<svg xmlns="http://www.w3.org/2000/svg" xmlns:xlink="http://www.w3.org/1999/xlink" id="Layer_1" x="0px" y="0px" viewBox="0 0 132.59 121.09" style="enable-background:new 0 0 132.59 121.09;" xml:space="preserve">
<style type="text/css">
	.st0{fill:none;stroke:#344154;stroke-width:3;stroke-linecap:round;stroke-linejoin:round;stroke-miterlimit:10;}
	.st1{fill:#E31E25;}
	.st2{fill:#17C2C9;}
</style>
<g>
	<g id="XMLID_81_">
		<path id="XMLID_85_" class="st0" d="M99.11,109.16c0-5.77,4.67-10.44,10.44-10.44c5.77,0,10.44,4.67,10.44,10.44    c0,5.77-4.67,10.44-10.44,10.44C103.79,119.59,99.11,114.92,99.11,109.16z"></path>
		<path id="XMLID_84_" class="st0" d="M19.55,109.16c0-5.77,4.67-10.44,10.44-10.44c5.76,0,10.44,4.67,10.44,10.44    c0,5.77-4.67,10.44-10.44,10.44C24.22,119.59,19.55,114.92,19.55,109.16z"></path>
		<path id="XMLID_83_" class="st0" d="M119.7,111.55h2.91h6.84c0.91,0,1.65-0.74,1.64-1.66l-0.08-7.27c0-1.12-0.47-1.86-1.13-2.29    l-2.86-1.88L127,94.61c0.11-1-0.43-1.95-1.34-2.36c-3.09-1.4-10.6-4.03-24.4-4.83c-5.03-0.29-7.85-1.55-12.36-3.8l-11.26-5.63    c-4.44-2.22-9.34-3.38-14.31-3.38h-14.4c-9.31,0-18.54,2.25-26.6,6.92c-4.4,2.55-10.16,4.76-16.62,4.4    c-0.82-0.04-1.49,0.61-1.49,1.42v5.06c0,0-2.73,3.5-2.73,8.53c0,0,0.04,10.61,8.29,10.61h6.98h3.07"></path>
		<line id="XMLID_82_" class="st0" x1="40.88" y1="111.55" x2="98.5" y2="111.55"></line>
	</g>
	<path id="XMLID_80_" class="st0" d="M56.67,74.61v15.93h22.42c4.79,0,9.39-1.9,12.77-5.29l0.09-0.09"></path>
	<path id="XMLID_79_" class="st0" d="M56.67,90.54h-7.88c-8.3,0-15.83-4.87-19.23-12.44l0,0"></path>
	<line id="XMLID_75_" class="st0" x1="4.23" y1="92.42" x2="14.47" y2="92.42"></line>
	<path class="st0" d="M37.23,65.65c-0.66-2.48-1.01-5.08-1.01-7.77c0-16.61,13.47-30.08,30.08-30.08   c16.61,0,30.08,13.47,30.08,30.08c0,5.76-1.62,11.13-4.42,15.71"></path>
	<path class="st1" d="M66.29,33.81c-12.38,0-22.61,9.4-23.93,21.44c6.37-5.66,14.76-9.11,23.93-9.11c9.18,0,17.56,3.45,23.93,9.11   C88.91,43.21,78.68,33.81,66.29,33.81z"></path>
	<path class="st0" d="M108.89,78.04c1.04-2.19,1.91-4.47,2.6-6.83c0.71-2.41,2.95-4.05,5.47-4.05l0,0c3.16,0,5.72-2.56,5.72-5.72   v-7.1c0-3.16-2.56-5.72-5.72-5.72l0,0c-2.52,0-4.75-1.64-5.46-4.05c-0.95-3.22-2.23-6.3-3.81-9.2c-1.21-2.21-0.79-4.96,0.99-6.74   l0,0c2.23-2.23,2.23-5.86,0-8.09l-5.02-5.02c-2.23-2.23-5.86-2.23-8.09,0l0,0c-1.78,1.78-4.53,2.2-6.74,0.99   c-2.9-1.58-5.98-2.86-9.2-3.81c-2.41-0.71-4.05-2.95-4.05-5.46l0,0c0-3.16-2.56-5.72-5.72-5.72h-7.1c-3.16,0-5.72,2.56-5.72,5.72   l0,0c0,2.52-1.64,4.75-4.05,5.46c-3.22,0.95-6.31,2.23-9.2,3.81c-2.21,1.21-4.96,0.79-6.74-0.99l0,0c-2.23-2.23-5.86-2.23-8.09,0   l-5.02,5.02c-2.23,2.23-2.23,5.86,0,8.09l0,0c1.78,1.78,2.2,4.53,0.99,6.74c-1.58,2.9-2.86,5.98-3.81,9.2   c-0.71,2.41-2.95,4.05-5.46,4.05l0,0c-3.16,0-5.72,2.56-5.72,5.72v7.1c0,3.16,2.56,5.72,5.72,5.72l0,0c2.52,0,4.75,1.64,5.46,4.05"></path>
	<path class="st2" d="M33.12,109.16c0,1.73-1.4,3.13-3.13,3.13c-1.73,0-3.13-1.4-3.13-3.13c0-1.73,1.4-3.13,3.13-3.13   C31.72,106.02,33.12,107.43,33.12,109.16z"></path>
	<path class="st2" d="M112.68,109.16c0,1.73-1.4,3.13-3.13,3.13c-1.73,0-3.13-1.4-3.13-3.13c0-1.73,1.4-3.13,3.13-3.13   C111.28,106.02,112.68,107.43,112.68,109.16z"></path>
</g>
</svg>